<?xml version="1.0" standalone="no"?>
<!DOCTYPE svg PUBLIC "-//W3C//DTD SVG 20010904//EN"
 "http://www.w3.org/TR/2001/REC-SVG-20010904/DTD/svg10.dtd">
<svg version="1.0" xmlns="http://www.w3.org/2000/svg"
 width="586.000000pt" height="533.000000pt" viewBox="0 0 586.000000 533.000000"
 preserveAspectRatio="xMidYMid meet">

<g transform="translate(0.000000,533.000000) scale(0.100000,-0.100000)"
fill="#000000" stroke="none">
<path d="M2818 4514 c-26 -13 -32 -27 -40 -79 -3 -17 -14 -21 -73 -28 -127
-15 -167 -33 -200 -91 -7 -12 -31 -20 -83 -26 -121 -16 -227 -75 -283 -159
-26 -39 -30 -53 -26 -92 4 -44 1 -50 -35 -85 -69 -67 -95 -145 -78 -236 8 -44
7 -62 -6 -93 -21 -51 -21 -145 1 -225 27 -98 34 -140 23 -140 -6 0 -7 -14 -3
-32 10 -46 34 -102 41 -95 3 3 1 14 -5 26 -8 13 -8 22 -1 26 6 4 9 3 8 -2 -3
-13 13 -56 28 -70 16 -16 71 -17 76 -1 2 6 12 -11 22 -38 10 -27 32 -74 48
-104 l29 -55 -25 -20 c-14 -11 -54 -40 -90 -65 -36 -25 -67 -49 -69 -55 -2 -5
0 -44 5 -85 11 -90 5 -120 -23 -120 -26 0 -69 23 -93 49 -29 32 -49 26 -85
-24 -37 -52 -48 -55 -57 -17 -12 51 -67 177 -85 197 -18 19 -19 19 -46 -7 -44
-40 -80 -61 -88 -49 -3 6 1 32 10 58 30 87 35 136 21 197 -22 92 -151 297
-265 420 -92 98 -158 128 -193 89 -52 -59 -142 -273 -199 -472 -33 -117 -36
-105 48 -188 29 -29 53 -59 53 -67 0 -27 -42 -46 -101 -46 -32 0 -59 -5 -61
-10 -7 -23 11 -232 27 -309 18 -82 19 -83 92 -154 54 -54 71 -76 64 -86 -8
-12 -17 -8 -53 20 -67 55 -64 55 -121 -5 -29 -31 -57 -56 -62 -56 -31 1 -35
13 -61 168 -6 37 -29 50 -185 102 -243 81 -427 111 -463 74 -48 -47 14 -330
119 -550 50 -103 96 -152 171 -179 27 -9 61 -22 77 -27 51 -19 24 -48 -57 -63
-25 -5 -36 -13 -36 -24 0 -41 155 -264 240 -345 49 -47 69 -58 144 -82 118
-36 125 -59 29 -86 -53 -15 -54 -30 -8 -90 119 -156 324 -264 462 -243 41 6
53 16 207 186 148 163 165 185 171 225 5 37 9 44 24 39 15 -4 22 6 41 57 208
581 345 913 418 1014 73 100 281 216 484 270 49 12 54 12 73 -6 37 -34 141
-61 237 -61 94 0 172 17 164 36 -3 8 4 10 21 7 16 -3 24 -1 20 5 -4 6 -1 10 6
10 6 -1 29 3 50 7 31 7 52 3 110 -19 195 -76 311 -157 373 -261 82 -138 268
-650 351 -967 17 -66 20 -70 138 -184 66 -65 184 -181 263 -258 l144 -140 71
0 c122 1 236 55 346 166 57 58 121 149 121 173 0 8 -14 17 -32 21 -52 10 -88
26 -88 40 0 7 41 29 92 50 61 26 104 51 130 77 77 77 238 348 226 380 -4 8
-25 18 -48 22 -47 7 -80 22 -80 35 0 5 35 23 77 42 91 39 132 77 167 154 84
184 146 523 108 593 -25 45 -151 26 -367 -56 -139 -54 -262 -109 -270 -122 -3
-5 -9 -47 -14 -95 -5 -48 -13 -91 -19 -97 -17 -17 -68 10 -107 56 l-33 40 -51
-42 c-27 -23 -52 -42 -55 -42 -3 0 -6 11 -6 24 0 23 -5 25 -47 28 -68 4 -68
27 1 108 33 38 59 79 63 100 10 48 10 274 0 333 l-8 49 -57 -7 c-66 -7 -112 6
-112 32 0 10 23 47 51 83 63 80 62 85 -21 259 -119 246 -214 381 -268 381 -55
0 -171 -159 -272 -374 -27 -56 -54 -124 -61 -150 -18 -72 -7 -161 30 -233 17
-34 31 -65 31 -68 0 -14 -50 -2 -82 20 -54 37 -64 33 -83 -32 -24 -81 -54
-253 -58 -331 -4 -73 -26 -102 -77 -102 -37 0 -42 17 -29 106 5 41 8 82 5 92
-6 17 -243 180 -313 216 -18 9 -33 18 -33 20 0 2 23 18 50 36 75 48 175 162
215 245 19 39 45 111 58 160 l24 90 33 -3 c75 -8 144 132 94 194 -14 18 -15
18 -8 -6 6 -24 5 -24 -8 -6 -11 14 -15 47 -15 115 0 53 -6 116 -12 140 -10 34
-10 50 0 73 17 41 4 152 -26 213 -28 59 -73 104 -133 137 -38 20 -47 33 -77
103 -21 49 -48 92 -69 112 -35 33 -107 59 -133 49 -9 -4 -33 10 -60 33 -71 63
-124 84 -223 89 -76 4 -93 9 -156 43 -76 42 -113 47 -156 23z m-28 -614 c-6
-11 -16 -20 -22 -20 -6 0 -3 9 7 20 10 11 20 20 22 20 2 0 -1 -9 -7 -20z
m-209 -7 c13 -15 12 -15 -8 -4 -24 12 -29 21 -14 21 5 0 15 -7 22 -17z m339
-35 c0 -6 -6 -5 -15 2 -8 7 -15 14 -15 16 0 2 7 1 15 -2 8 -4 15 -11 15 -16z
m-213 6 c-3 -3 -12 -4 -19 -1 -8 3 -5 6 6 6 11 1 17 -2 13 -5z m-30 -40 c-3
-3 -12 -4 -19 -1 -8 3 -5 6 6 6 11 1 17 -2 13 -5z m338 -4 c13 -6 15 -9 5 -9
-8 0 -22 4 -30 9 -18 12 -2 12 25 0z m-242 -7 c-7 -2 -19 -2 -25 0 -7 3 -2 5
12 5 14 0 19 -2 13 -5z m694 -15 c-3 -8 -6 -5 -6 6 -1 11 2 17 5 13 3 -3 4
-12 1 -19z m-1116 -37 c-9 -2 -22 -8 -28 -13 -9 -7 -13 -7 -13 1 0 6 6 11 13
11 6 0 4 5 -5 11 -32 18 -19 27 16 10 22 -11 28 -17 17 -20z m173 3 c9 -24 2
-26 -12 -4 -7 11 -8 20 -3 20 5 0 12 -7 15 -16z m-47 0 c-3 -3 -12 -4 -19 -1
-8 3 -5 6 6 6 11 1 17 -2 13 -5z m756 -1 c-7 -2 -19 -2 -25 0 -7 3 -2 5 12 5
14 0 19 -2 13 -5z m135 0 c-10 -2 -26 -2 -35 0 -10 3 -2 5 17 5 19 0 27 -2 18
-5z m140 -23 c13 -17 17 -27 8 -24 -11 4 -41 54 -33 54 2 0 13 -13 25 -30z
m-1095 13 c-7 -2 -19 -2 -25 0 -7 3 -2 5 12 5 14 0 19 -2 13 -5z m50 -20 c-7
-2 -19 -2 -25 0 -7 3 -2 5 12 5 14 0 19 -2 13 -5z m-153 -40 c-11 -17 -11 -17
-6 0 3 10 6 24 7 30 0 9 2 9 5 0 3 -7 0 -20 -6 -30z m21 -20 c-12 -20 -14 -14
-5 12 4 9 9 14 11 11 3 -2 0 -13 -6 -23z m-45 -31 c-18 -16 -18 -16 -6 6 6 13
14 21 18 18 3 -4 -2 -14 -12 -24z m1341 22 c-3 -3 -12 -4 -19 -1 -8 3 -5 6 6
6 11 1 17 -2 13 -5z m-60 -20 c-3 -3 -12 -4 -19 -1 -8 3 -5 6 6 6 11 1 17 -2
13 -5z m50 -51 c-3 -10 -5 -4 -5 12 0 17 2 24 5 18 2 -7 2 -21 0 -30z m-1364
-43 l6 -35 -14 30 c-7 17 -11 34 -8 38 7 12 9 7 16 -33z m1376 -25 c0 -5 -4
-3 -9 5 -5 8 -9 22 -9 30 0 16 17 -16 18 -35z m-219 -10 c11 -13 10 -14 -4 -9
-9 3 -16 10 -16 15 0 13 6 11 20 -6z m-110 -45 c0 -5 -4 -10 -10 -10 -5 0 -10
5 -10 10 0 6 5 10 10 10 6 0 10 -4 10 -10z m50 1 c-20 -5 -26 -15 -31 -46 l-6
-40 -2 36 c-1 40 13 59 44 58 17 -1 16 -2 -5 -8z m-1090 -15 c0 -3 -4 -8 -10
-11 -5 -3 -10 -1 -10 4 0 6 5 11 10 11 6 0 10 -2 10 -4z m1127 -58 c-2 -13 -4
-3 -4 22 0 25 2 35 4 23 2 -13 2 -33 0 -45z m-807 48 c0 -2 -11 -6 -25 -8 -13
-3 -22 -1 -19 3 5 9 44 13 44 5z m32 -5 c-8 -5 -11 -17 -7 -33 4 -14 2 -28 -3
-31 -5 -4 -9 12 -10 33 -2 32 2 40 16 40 13 0 14 -2 4 -9z m55 -43 c-3 -7 -5
-2 -5 12 0 14 2 19 5 13 2 -7 2 -19 0 -25z m-433 -2 c-3 -9 -10 -16 -15 -16
-5 0 -4 9 3 20 14 22 21 20 12 -4z m293 -13 c-3 -10 -5 -4 -5 12 0 17 2 24 5
18 2 -7 2 -21 0 -30z m1163 -3 c0 -5 -4 -10 -10 -10 -5 0 -10 5 -10 10 0 6 5
10 10 10 6 0 10 -4 10 -10z m161 -27 c-12 -20 -14 -14 -5 12 4 9 9 14 11 11 3
-2 0 -13 -6 -23z m-1188 -13 c-18 -32 -48 -45 -80 -37 -11 3 -7 5 11 6 32 1
66 26 66 48 0 7 5 13 11 13 5 0 2 -14 -8 -30z m722 20 c3 -5 1 -10 -4 -10 -6
0 -11 5 -11 10 0 6 2 10 4 10 3 0 8 -4 11 -10z m-842 -20 c3 -11 1 -20 -4 -20
-5 0 -9 9 -9 20 0 11 2 20 4 20 2 0 6 -9 9 -20z m147 -10 c-6 -12 -14 -20 -17
-17 -2 3 1 14 8 26 7 11 15 18 17 16 2 -2 -2 -13 -8 -25z m990 26 c0 -2 -8
-10 -17 -17 -16 -13 -17 -12 -4 4 13 16 21 21 21 13z m-353 -32 c-3 -3 -12 -4
-19 -1 -8 3 -5 6 6 6 11 1 17 -2 13 -5z m498 -33 c-21 -43 -29 -39 -8 4 9 19
18 33 21 31 2 -2 -4 -18 -13 -35z m62 7 c-3 -8 -6 -5 -6 6 -1 11 2 17 5 13 3
-3 4 -12 1 -19z m-552 2 c-3 -5 -14 -10 -23 -9 -14 0 -13 2 3 9 27 11 27 11
20 0z m-675 -10 c0 -5 -5 -10 -11 -10 -5 0 -7 5 -4 10 3 6 8 10 11 10 2 0 4
-4 4 -10z m-370 -25 c0 -8 -2 -15 -4 -15 -2 0 -6 7 -10 15 -3 8 -1 15 4 15 6
0 10 -7 10 -15z m-214 -47 c16 -18 20 -26 9 -18 -28 21 -45 38 -45 44 0 11 6
6 36 -26z m969 -8 c3 -6 -4 -10 -17 -10 -18 0 -20 2 -8 10 19 12 18 12 25 0z
m-137 -7 c-10 -2 -28 -2 -40 0 -13 2 -5 4 17 4 22 1 32 -1 23 -4z m-93 -13
c-28 -12 -57 -12 -50 0 3 6 21 10 38 9 27 0 29 -2 12 -9z m298 3 c-7 -2 -21
-2 -30 0 -10 3 -4 5 12 5 17 0 24 -2 18 -5z m-370 -20 c-7 -2 -19 -2 -25 0 -7
3 -2 5 12 5 14 0 19 -2 13 -5z m500 0 c-7 -2 -21 -2 -30 0 -10 3 -4 5 12 5 17
0 24 -2 18 -5z m90 0 c-13 -2 -33 -2 -45 0 -13 2 -3 4 22 4 25 0 35 -2 23 -4z
m-670 -10 c-7 -2 -21 -2 -30 0 -10 3 -4 5 12 5 17 0 24 -2 18 -5z m-510 -31
c-3 -15 -13 -22 -27 -21 -16 1 -17 2 -4 6 9 2 20 13 23 24 9 27 16 19 8 -9z
m652 -562 c4 -6 -6 -7 -27 -3 -44 8 -48 13 -10 13 17 0 34 -4 37 -10z"/>
<path d="M2162 1250 c-8 -13 -8 -20 -2 -20 6 0 13 7 17 15 9 24 -1 27 -15 5z"/>
<path d="M3683 928 c11 -38 19 -46 68 -71 52 -26 159 -51 159 -37 0 6 -223
150 -233 150 -3 0 0 -19 6 -42z"/>
<path d="M3610 715 c-102 -35 -239 -66 -385 -87 -119 -17 -642 -17 -790 0 -60
7 -169 22 -241 33 l-131 21 -53 -27 c-35 -18 -56 -23 -58 -16 -2 7 -52 11
-157 11 l-153 0 -172 -115 c-94 -63 -185 -122 -200 -130 -31 -16 -54 -20 -31
-6 17 11 4 34 -15 27 -7 -3 -16 -1 -19 4 -3 4 0 10 7 12 17 6 -54 78 -78 79
-18 0 -18 1 1 9 18 8 17 9 -8 9 -31 1 -66 17 -82 37 -5 7 -26 20 -45 28 -31
12 -38 12 -60 0 l-25 -15 33 5 c41 7 41 -1 -1 -13 l-32 -9 36 -1 c40 -1 75
-31 66 -56 -4 -8 -1 -15 6 -16 7 0 2 -4 -10 -9 -13 -5 -21 -15 -19 -22 1 -7 1
-10 -1 -6 -2 3 -18 2 -36 -3 -27 -8 -35 -6 -48 10 -9 11 -19 18 -21 15 -3 -3
-2 13 2 36 5 29 4 40 -5 40 -16 0 -37 -25 -28 -33 3 -4 1 -7 -5 -7 -14 0 -16
-39 -3 -59 5 -7 14 -10 20 -7 6 4 11 3 11 -2 0 -5 15 -17 33 -26 22 -11 26
-16 13 -16 -18 0 -18 -1 -3 -18 28 -31 21 -76 -15 -108 -18 -15 -44 -32 -58
-38 -42 -20 -90 -51 -90 -58 0 -13 18 -9 23 4 3 8 6 5 6 -5 1 -10 5 -16 11
-12 5 3 7 13 4 23 -5 13 -4 14 4 3 9 -12 16 -12 48 2 31 12 35 17 22 22 -18 7
-15 25 3 25 6 0 8 -4 5 -9 -3 -5 1 -11 9 -15 8 -3 15 -1 15 4 0 6 9 10 20 10
11 0 20 -3 20 -7 -1 -5 -20 -39 -44 -78 -44 -70 -50 -89 -21 -65 11 9 15 9 15
1 0 -6 -10 -16 -23 -21 -15 -6 -17 -9 -5 -9 20 -1 90 79 84 96 -3 7 1 10 8 7
7 -3 18 7 24 21 19 41 33 19 30 -45 -1 -32 1 -62 5 -66 4 -4 7 6 8 22 0 25 2
26 9 9 6 -17 9 -14 16 20 5 22 8 61 9 87 0 25 3 42 6 36 6 -9 22 28 20 45 -1
4 5 6 11 5 7 -2 12 3 10 10 -1 8 3 12 10 9 7 -2 26 2 41 10 16 8 31 13 33 11
2 -2 13 -76 24 -163 12 -88 25 -163 29 -168 4 -4 738 -6 1631 -5 l1625 3 27
195 c15 107 27 202 27 211 1 8 -14 23 -31 32 -18 9 -93 55 -167 102 -87 55
-144 85 -162 85 -22 0 -30 6 -35 24 -4 18 -39 46 -57 46 -2 0 -1 -16 1 -35 l4
-35 -115 0 -115 0 -53 37 c-30 20 -67 47 -82 60 -16 12 -32 22 -35 22 -4 -1
-50 -16 -102 -34z m-2590 -131 c0 -2 -7 -4 -15 -4 -8 0 -15 4 -15 10 0 5 7 7
15 4 8 -4 15 -8 15 -10z m176 -226 c4 -6 3 -8 -3 -5 -6 4 -19 0 -29 -8 -22
-16 -34 -19 -34 -7 0 5 12 13 28 19 15 6 28 11 29 12 1 1 5 -4 9 -11z m-179
-90 c-3 -7 -5 -2 -5 12 0 14 2 19 5 13 2 -7 2 -19 0 -25z m-39 -83 c-3 -3 -9
2 -12 12 -6 14 -5 15 5 6 7 -7 10 -15 7 -18z m2250 -1 c37 -15 46 -41 10 -29
-13 4 -35 8 -50 9 -14 0 -24 4 -22 7 2 4 -8 10 -21 13 -14 4 -23 11 -19 17 7
11 51 4 102 -17z m-2178 -24 c0 -5 -5 -10 -11 -10 -5 0 -7 5 -4 10 3 6 8 10
11 10 2 0 4 -4 4 -10z m-130 -51 c0 -6 -4 -7 -10 -4 -5 3 -10 11 -10 16 0 6 5
7 10 4 6 -3 10 -11 10 -16z m1752 -26 c-9 -3 -7 -12 8 -33 11 -15 20 -31 20
-35 0 -13 -184 5 -192 18 -11 18 -8 19 72 27 l25 2 -25 9 c-20 7 -17 8 15 4
22 -2 47 0 55 5 8 5 20 9 25 9 6 0 4 -3 -3 -6z m-275 -39 c-3 -3 -12 -4 -19
-1 -8 3 -5 6 6 6 11 1 17 -2 13 -5z"/>
<path d="M1150 615 c0 -42 8 -44 43 -7 31 32 27 42 -15 42 -25 0 -28 -3 -28
-35z"/>
<path d="M4815 641 c-3 -5 0 -11 7 -14 7 -2 3 -2 -9 0 -13 2 -23 -1 -23 -6 0
-5 -16 -16 -35 -25 -19 -9 -35 -21 -35 -26 0 -6 -4 -10 -10 -10 -20 0 -58 -42
-53 -58 4 -10 2 -13 -5 -8 -15 9 -42 -17 -42 -39 0 -12 -5 -15 -16 -11 -10 4
-14 1 -11 -6 2 -7 15 -12 28 -10 17 1 20 0 10 -7 -11 -7 -4 -16 29 -40 24 -17
51 -31 62 -31 10 0 17 -3 16 -7 -1 -5 5 -21 13 -37 l14 -29 7 24 c5 15 6 10 2
-14 -8 -55 13 -147 32 -140 9 3 14 21 14 54 0 27 4 49 9 49 4 0 20 -18 35 -40
15 -23 31 -38 36 -35 5 3 7 0 5 -8 -3 -7 5 -22 17 -33 13 -10 20 -15 16 -10
-4 5 -1 15 7 22 12 13 10 22 -16 66 -39 66 -27 78 37 39 52 -32 112 -52 100
-33 -3 6 0 13 6 15 8 4 4 8 -9 12 -13 4 -23 12 -23 17 0 6 -7 8 -15 4 -8 -3
-15 -2 -15 3 0 7 -43 31 -57 31 -3 0 -2 -7 1 -16 3 -9 2 -12 -5 -9 -5 4 -8 12
-6 18 3 7 -7 24 -20 39 -23 24 -25 32 -18 73 3 26 9 44 12 41 11 -10 33 23 27
41 -6 16 -5 16 10 -2 16 -20 16 -20 31 -1 21 28 18 76 -6 105 -17 21 -22 22
-30 10 -12 -19 -11 -32 1 -24 18 11 11 -41 -8 -58 -22 -20 -63 -22 -80 -5 -10
10 -15 10 -21 -1 -5 -8 -8 7 -7 38 0 28 -2 51 -6 51 -5 0 -8 -5 -8 -11 0 -5
-5 -7 -11 -3 -18 11 18 26 42 19 14 -5 19 -3 15 4 -5 7 -1 9 8 5 9 -3 16 -1
16 5 0 6 4 11 10 11 5 0 7 -7 4 -15 -4 -8 -1 -15 5 -15 12 0 14 11 5 34 -7 18
-79 23 -89 7z m146 -134 c-10 -9 -11 -8 -5 6 3 10 9 15 12 12 3 -3 0 -11 -7
-18z m-281 -83 c0 -2 -9 0 -20 6 -11 6 -20 13 -20 16 0 2 9 0 20 -6 11 -6 20
-13 20 -16z m226 -98 c8 -8 11 -17 6 -20 -4 -2 -13 4 -20 15 -14 22 -7 25 14
5z m-86 -50 c0 -3 -4 -8 -10 -11 -5 -3 -10 -1 -10 4 0 6 5 11 10 11 6 0 10 -2
10 -4z m34 -22 c3 -8 2 -12 -4 -9 -6 3 -10 10 -10 16 0 14 7 11 14 -7z m152
-9 c18 -13 18 -14 -4 -8 -12 3 -25 9 -28 14 -8 14 10 11 32 -6z m-106 -15 c0
-5 -2 -10 -4 -10 -3 0 -8 5 -11 10 -3 6 -1 10 4 10 6 0 11 -4 11 -10z"/>
<path d="M874 425 c11 -8 22 -12 25 -9 6 6 -19 24 -34 24 -5 -1 -1 -7 9 -15z"/>
<path d="M4945 137 c-4 -10 -3 -23 4 -30 16 -16 26 0 14 25 -10 21 -11 22 -18
5z"/>
<path d="M4795 120 c3 -5 8 -10 11 -10 2 0 4 5 4 10 0 6 -5 10 -11 10 -5 0 -7
-4 -4 -10z"/>
</g>
</svg>
