<?xml version="1.0" standalone="no"?>
<!DOCTYPE svg PUBLIC "-//W3C//DTD SVG 20010904//EN"
 "http://www.w3.org/TR/2001/REC-SVG-20010904/DTD/svg10.dtd">
<svg version="1.0" xmlns="http://www.w3.org/2000/svg"
 width="507.000000pt" height="497.000000pt" viewBox="0 0 507.000000 497.000000"
 preserveAspectRatio="xMidYMid meet">

<g transform="translate(0.000000,497.000000) scale(0.100000,-0.100000)"
fill="#000000" stroke="none">
<path d="M3345 4702 c-27 -6 -51 -28 -65 -62 l-12 -28 -33 19 c-54 32 -107 -2
-121 -78 -4 -23 -12 -33 -24 -33 -20 0 -60 -44 -60 -67 0 -8 -14 -27 -31 -43
-26 -24 -33 -38 -36 -82 -3 -39 -2 -49 6 -38 6 8 11 27 11 41 0 14 6 34 14 44
12 17 14 14 20 -31 13 -84 54 -122 77 -71 14 30 -4 101 -32 125 -23 20 -24 34
-4 72 9 18 24 30 35 30 16 0 20 -7 20 -38 0 -49 27 -153 45 -171 7 -8 21 -11
30 -7 15 5 17 17 13 71 -3 53 -10 73 -36 110 -18 25 -32 54 -32 64 0 36 21 78
46 91 21 12 28 11 52 -7 26 -20 27 -23 24 -99 -5 -122 23 -214 65 -214 43 0
37 119 -12 229 l-27 59 20 45 c21 47 47 63 82 52 11 -3 20 -2 20 3 0 12 -29
19 -55 14z m-44 -207 c11 -24 22 -74 26 -110 5 -56 4 -65 -10 -65 -9 0 -22 10
-28 22 -13 24 -26 198 -15 198 4 0 16 -20 27 -45z m-115 -132 c7 -49 -1 -82
-17 -66 -14 14 -39 111 -39 153 l1 35 24 -40 c13 -22 27 -59 31 -82z m-119 -4
c18 -35 17 -89 -2 -89 -19 0 -35 40 -35 86 0 41 18 42 37 3z"/>
<path d="M3000 4595 c0 -30 5 -55 10 -55 6 0 10 25 10 55 0 30 -4 55 -10 55
-5 0 -10 -25 -10 -55z"/>
<path d="M2865 4540 c21 -22 41 -37 44 -35 6 7 -60 75 -73 75 -6 0 7 -18 29
-40z"/>
<path d="M2614 4431 c4 -59 3 -92 -4 -96 -6 -4 -38 3 -73 14 -85 28 -146 40
-152 31 -4 -7 13 -71 29 -111 6 -13 -9 -26 -66 -57 -91 -50 -268 -186 -256
-197 10 -10 221 61 285 96 l72 40 68 -40 67 -41 -52 0 c-29 0 -52 -4 -52 -9 0
-15 105 -106 178 -154 69 -46 211 -119 253 -130 23 -6 23 -7 -10 -39 -59 -57
-81 -119 -81 -228 -1 -77 -5 -105 -24 -149 -22 -52 -24 -85 -4 -97 13 -8 199
185 247 256 78 118 96 203 64 315 -9 33 -17 87 -18 120 -2 73 -34 151 -90 220
-22 27 -53 76 -69 108 -15 31 -31 57 -35 57 -4 0 -12 -17 -17 -37 l-9 -37 -37
60 c-50 81 -173 194 -211 194 -6 0 -7 -32 -3 -89z"/>
<path d="M3247 4175 c43 -20 113 -35 113 -24 0 9 -53 25 -111 34 l-34 5 32
-15z"/>
<path d="M1991 3954 c0 -11 3 -14 6 -6 3 7 2 16 -1 19 -3 4 -6 -2 -5 -13z"/>
<path d="M2266 3932 c-3 -5 6 -19 20 -31 14 -12 35 -43 46 -67 11 -25 26 -48
34 -51 21 -8 64 6 71 23 9 23 -3 27 -29 10 -27 -18 -34 -14 -52 29 -15 34 -63
95 -76 95 -5 0 -11 -4 -14 -8z"/>
<path d="M1980 3919 c0 -5 5 -7 10 -4 6 3 10 8 10 11 0 2 -4 4 -10 4 -5 0 -10
-5 -10 -11z"/>
<path d="M2220 3825 c-7 -8 -10 -25 -6 -39 11 -45 71 -45 82 0 8 30 -11 54
-41 54 -12 0 -28 -7 -35 -15z"/>
<path d="M2593 3723 c-41 -8 -24 -20 32 -25 69 -6 108 -37 103 -83 -4 -38 14
-48 26 -14 24 68 -70 139 -161 122z"/>
<path d="M2528 3609 c-36 -20 -19 -79 23 -79 49 0 62 57 18 80 -21 12 -20 12
-41 -1z"/>
<path d="M2190 3510 c0 -5 5 -10 11 -10 5 0 7 5 4 10 -3 6 -8 10 -11 10 -2 0
-4 -4 -4 -10z"/>
<path d="M2218 3468 c14 -14 45 -20 37 -8 -2 4 -14 10 -26 13 -16 4 -19 3 -11
-5z"/>
<path d="M2857 3253 c-4 -3 -7 -11 -7 -17 0 -6 5 -5 12 2 6 6 9 14 7 17 -3 3
-9 2 -12 -2z"/>
<path d="M2870 3219 c0 -5 5 -7 10 -4 6 3 10 8 10 11 0 2 -4 4 -10 4 -5 0 -10
-5 -10 -11z"/>
<path d="M2830 3205 c-8 -9 -8 -15 -2 -15 12 0 26 19 19 26 -2 2 -10 -2 -17
-11z"/>
<path d="M2617 3106 c-14 -11 -15 -15 -3 -19 8 -3 16 2 19 14 3 10 4 19 4 19
-1 0 -10 -7 -20 -14z"/>
<path d="M2546 3061 c-4 -5 0 -12 6 -14 10 -4 9 -8 -2 -16 -9 -7 -10 -11 -3
-11 6 0 14 4 18 10 3 5 13 6 21 3 13 -5 13 -7 2 -14 -9 -6 -9 -9 -1 -9 25 0
22 19 -6 39 -16 12 -32 17 -35 12z"/>
<path d="M2483 3036 c-43 -16 -48 -22 -23 -29 13 -3 23 0 27 9 3 8 14 14 24
14 10 0 19 5 19 10 0 12 -5 11 -47 -4z"/>
<path d="M2092 2980 c0 -19 2 -27 5 -17 2 9 2 25 0 35 -3 9 -5 1 -5 -18z"/>
<path d="M2387 3003 c-26 -4 -27 -6 -12 -17 9 -7 30 -10 46 -8 24 4 27 7 18
18 -6 8 -14 13 -18 13 -3 -1 -19 -4 -34 -6z"/>
<path d="M2110 2991 c0 -5 9 -7 20 -4 11 3 20 7 20 9 0 2 -9 4 -20 4 -11 0
-20 -4 -20 -9z"/>
<path d="M2170 2975 c-32 -12 -33 -14 -10 -15 23 -1 23 -2 5 -10 -18 -8 -17
-9 8 -9 17 -1 26 3 22 9 -4 6 -1 17 5 25 14 17 15 17 -30 0z"/>
<path d="M2329 2985 c-1 -5 -1 -13 0 -17 0 -5 -9 -8 -21 -8 -17 0 -19 -3 -10
-12 9 -9 15 -9 24 0 7 7 21 12 33 13 14 0 16 2 5 6 -8 3 -18 11 -22 17 -5 7
-8 7 -9 1z"/>
<path d="M2480 2980 c-8 -5 -28 -10 -44 -10 -19 0 -27 -3 -20 -10 9 -9 85 7
100 23 11 10 -19 8 -36 -3z"/>
<path d="M2110 2960 c0 -5 5 -10 11 -10 5 0 7 5 4 10 -3 6 -8 10 -11 10 -2 0
-4 -4 -4 -10z"/>
<path d="M2230 2940 c-11 -8 -7 -9 15 -4 37 8 45 14 19 14 -10 0 -26 -5 -34
-10z"/>
<path d="M2715 2783 c-39 -3 -59 -11 -85 -34 -19 -17 -68 -47 -108 -66 -130
-63 -274 -55 -392 23 -49 32 -54 33 -98 24 -219 -48 -491 -160 -697 -288 -100
-62 -359 -245 -418 -295 l-38 -33 158 -246 c87 -136 168 -260 179 -275 l22
-28 96 48 c53 26 133 70 177 97 44 28 87 50 95 50 12 0 14 -82 14 -555 0 -305
3 -555 8 -555 4 0 40 9 81 20 110 29 238 35 348 16 108 -19 143 -33 143 -57 0
-31 -31 -39 -100 -28 -44 7 -85 7 -131 0 -124 -20 -121 -28 12 -34 147 -7 230
-22 258 -49 28 -26 27 -56 -4 -70 -14 -6 -25 -19 -25 -28 0 -37 -28 -45 -181
-51 -174 -6 -218 -23 -82 -32 132 -8 188 -37 148 -76 -12 -13 -48 -16 -198
-17 -133 -1 -194 -5 -227 -16 l-45 -15 -3 -97 c-3 -91 -2 -96 18 -96 11 0 20
-4 20 -10 0 -7 272 -10 795 -10 676 0 795 2 795 14 0 9 7 12 20 9 l21 -6 -8
609 c-4 335 -8 786 -8 1003 l0 395 205 32 c113 18 220 36 238 39 l32 6 0 309
0 310 -22 5 c-40 8 -436 46 -593 55 -145 9 -316 10 -420 3z"/>
</g>
</svg>
